<svg xmlns="http://www.w3.org/2000/svg" shape-rendering="geometricPrecision" viewBox="152.62 377.81 759.36 265.8">
  <metadata>null</metadata>

<path d=" M 152.962 558.592 C 153.61 553.179 156.071 546.553 162.815 548.425 C 165.553 549.184 167.768 551.189 169.782 553.094 C 171.621 554.833 173.245 556.778 174.93 558.661 C 178.752 562.932 183.665 567.821 182.787 574.06 C 182.533 575.861 181.791 577.7 180.784 579.21 C 176.556 585.553 164.708 591.863 158.133 585.513 C 156.137 583.586 155.124 580.79 154.399 578.177 C 152.7 572.056 152.206 564.899 152.962 558.592 Z" opacity="1" fill="rgb(94,103,88)" fill-rule="evenodd"/>
<path d=" M 154.955 471.602 C 155.394 465.036 155.541 458.4 156.469 451.878 C 157.016 448.034 157.841 444.19 160.756 441.395 C 163.194 439.058 165.931 438.72 169.158 438.716 C 177.91 438.707 186.801 445.626 189.783 453.843 C 191.263 457.922 190.328 463.116 190.056 467.34 C 189.84 470.69 189.534 474.032 189.33 477.383 C 189.105 481.084 188.962 484.727 186.479 487.708 C 184.834 489.684 182.549 490.672 180.177 491.509 C 178.785 491.999 177.367 492.409 175.95 492.819 C 170.372 494.433 161.088 498.064 156.821 492.23 C 154.204 488.654 154.549 483.99 154.701 479.813 C 154.8 477.077 154.773 474.336 154.955 471.602 Z" opacity="1" fill="rgb(99,137,147)" fill-rule="evenodd"/>
<path d=" M 155.931 529.099 C 156.314 524.922 157.326 519.909 160.632 517.003 C 163.843 514.183 168.628 513.384 172.706 512.733 C 176.299 512.158 180.349 511.538 183.475 513.853 C 185.049 515.019 185.838 516.79 186.435 518.601 C 187.594 522.122 188.933 526.342 188.683 530.088 C 188.371 534.749 182.439 536.408 178.825 537.885 C 172.604 540.429 161.701 544.822 157.249 537.053 C 156.72 536.13 156.35 535.108 156.143 534.065 C 155.819 532.432 155.78 530.754 155.931 529.099 Z" opacity="1" fill="rgb(132,139,126)" fill-rule="evenodd"/>
<path d=" M 156.396 409.597 C 156.977 404.36 157.759 399.145 158.552 393.933 C 158.977 391.131 159.313 387.986 161.336 385.833 C 163.182 383.867 165.729 382.85 168.195 381.906 C 174.39 379.538 183.43 376.311 188.847 381.912 C 190.783 383.914 191.444 386.256 192.116 388.872 C 193.532 394.386 195.25 401.262 194.618 406.971 C 194.272 410.099 192.458 412.745 190.643 415.216 C 188.184 418.564 185.39 421.688 182.59 424.751 C 180.172 427.397 177.701 430.241 174.291 431.628 C 169.983 433.379 163.874 432.815 160.376 429.68 C 158.154 427.689 156.846 424.459 156.306 421.584 C 155.59 417.77 155.971 413.428 156.396 409.597 Z" opacity="1" fill="rgb(131,138,125)" fill-rule="evenodd"/>
<path d=" M 157.373 598.546 C 159.712 591.65 167.792 595.338 171.684 598.501 C 174.865 601.086 177.762 604.064 180.775 606.84 C 184.952 610.687 190.675 614.778 192.975 620.131 C 194.023 622.57 194.237 625.203 194.189 627.828 C 194.16 629.454 193.959 631.123 193.407 632.661 C 189.968 642.242 178.287 635.827 172.245 632.879 C 169.144 631.366 164.809 629.651 162.664 626.829 C 161.076 624.739 160.673 621.636 160.145 619.135 C 159.238 614.84 158.235 610.555 157.509 606.225 C 157.098 603.768 156.546 600.986 157.373 598.546 Z" opacity="1" fill="rgb(124,139,115)" fill-rule="evenodd"/>
<path d=" M 162.916 505.466 C 166.598 503.64 170.822 502.581 174.803 501.504 C 181.208 499.771 187.661 498.311 194.22 497.256 C 224.004 492.469 254.703 494.385 283.405 503.977 C 298.441 509.002 312.573 516.161 327.168 522.271 C 337.696 526.679 348.655 530.241 359.711 533.055 C 374.33 536.777 389.845 538.595 404.915 537.192 C 411.121 536.614 417.194 535.547 423.339 534.566 C 425.765 534.179 428.582 532.901 430.989 532.947 C 430.371 533.865 429.046 534.061 428.091 534.521 C 425.105 535.961 421.679 536.982 418.521 538.003 C 405.852 542.099 392.21 544.808 378.855 544.736 C 362.329 544.647 345.933 542.359 330.188 537.197 C 314.71 532.123 300.234 524.6 284.99 518.942 C 266.359 512.028 247.481 506.633 227.812 503.588 C 213.144 501.317 197.93 500.931 183.16 502.485 C 178.305 502.995 173.499 503.67 168.724 504.65 C 167.375 504.927 164.165 506.064 162.916 505.466 Z" opacity="1" fill="rgb(44,128,163)" fill-rule="evenodd"/>
<path d=" M 176.866 547.039 C 177.128 546.434 176.977 546.737 177.327 546.133 C 178.598 544.641 180.516 543.912 182.239 543.079 C 186.95 540.802 194.592 536.916 199.884 539.296 C 203.873 541.091 207.862 545.963 209.338 550.052 C 209.987 551.848 210.339 554.021 209.349 555.766 C 208.098 557.971 205.573 559.493 203.408 560.665 C 195.171 565.127 187.079 563.469 181.267 556.21 C 179.161 553.579 175.967 550.702 176.866 547.039 Z" opacity="1" fill="rgb(121,135,111)" fill-rule="evenodd"/>
<path d=" M 178.412 591.571 C 179.066 589.136 181.932 587.464 183.993 586.348 C 190.855 582.63 199.493 583.974 206.001 587.762 C 208.86 589.427 213.737 592.61 212.768 596.479 C 212.249 598.553 210.712 600.375 209.344 601.962 C 206.217 605.591 202.523 611.224 197.048 610.644 C 193.066 610.222 189.197 606.144 186.405 603.585 C 183.484 600.907 177.167 596.205 178.412 591.571 Z" opacity="1" fill="rgb(125,137,115)" fill-rule="evenodd"/>
<path d=" M 185.406 433.055 C 186.189 430.719 188.177 428.74 189.732 426.901 C 192.011 424.208 194.161 421.41 196.649 418.897 C 198.12 417.412 199.716 415.946 201.878 415.707 C 206.493 415.199 210.864 418.638 212.536 422.746 C 213.392 424.848 213.563 427.293 213.936 429.517 C 214.332 431.867 215.01 434.549 214.149 436.875 C 213.144 439.589 210.434 440.743 208.031 441.916 C 202.02 444.849 195.997 447.07 190.408 442.214 C 187.905 440.039 184.127 436.865 185.406 433.055 Z" opacity="1" fill="rgb(113,126,110)" fill-rule="evenodd"/>
<path d=" M 189.925 573.593 C 190.869 566.944 202.716 565.49 201.515 573.484 C 201.051 576.574 197.933 578.659 194.949 578.626 C 192.139 578.594 189.503 576.57 189.925 573.593 Z" opacity="1" fill="rgb(108,119,109)" fill-rule="evenodd"/>
<path d=" M 192.897 514.579 C 194.236 508.937 202.857 508.948 207.294 510.368 C 210.191 511.295 212.518 513.07 211.706 516.335 C 210.706 520.352 208.078 524.751 206.054 528.356 C 205.292 529.713 203.993 531.402 202.388 531.79 C 195.782 533.385 194.597 523.874 193.668 519.574 C 193.309 517.912 192.484 516.322 192.897 514.579 Z" opacity="1" fill="rgb(126,137,117)" fill-rule="evenodd"/>
<path d=" M 195.948 470.1 C 196.316 465.074 195.987 458.648 199.036 454.364 C 201.606 450.752 206.765 448.606 210.815 447.145 C 213.618 446.134 216.455 444.484 219.536 445.582 C 222.809 446.749 224.605 450.446 226.157 453.296 C 229.134 458.759 232.077 464.255 234.741 469.877 C 236.364 473.304 238.233 476.779 237.828 480.702 C 237.56 483.299 235.422 485.215 232.973 485.79 C 228.23 486.905 222.868 486.605 218.006 486.777 C 212.831 486.96 207.192 488.203 202.056 487.534 C 199.807 487.241 197.128 486.029 196.085 483.89 C 195.465 482.62 195.605 480.877 195.608 479.501 C 195.614 476.382 195.72 473.211 195.948 470.1 Z" opacity="1" fill="rgb(99,108,94)" fill-rule="evenodd"/>
<path d=" M 198.937 385.079 C 199.826 381.733 202.355 379.828 205.568 378.959 C 208.787 378.089 212.262 378.205 215.568 378.102 C 219.92 377.967 224.305 377.623 228.629 378.374 C 232.678 379.077 237.007 382.165 236.009 386.778 C 235.173 390.643 232.003 393.703 229.306 396.397 C 223.527 402.171 214.839 414.761 205.526 408.367 C 201.224 405.413 200.913 399.327 200.064 394.638 C 199.557 391.836 198.186 387.905 198.937 385.079 Z" opacity="1" fill="rgb(98,111,94)" fill-rule="evenodd"/>
<path d=" M 200.932 626.091 C 202.011 616.646 211.069 609.664 217.215 603.153 C 219.976 600.228 222.924 596.899 227.006 595.956 C 238.005 593.417 246.105 608.106 245.048 617.451 C 244.793 619.705 244.322 621.913 243.899 624.138 C 242.866 629.567 242.341 637.482 236.557 640.088 C 232.157 642.072 226.532 640.554 221.975 639.975 C 218.814 639.573 215.659 639.123 212.495 638.744 C 207.188 638.108 201.818 637.231 200.936 630.931 C 200.713 629.334 200.75 627.689 200.932 626.091 Z" opacity="1" fill="rgb(92,102,88)" fill-rule="evenodd"/>
<path d=" M 207.351 571.561 C 209.038 564.775 215.841 558 223.194 559.021 C 225.242 559.305 227.512 559.966 228.842 561.665 C 230.375 563.624 230.243 566.099 230.187 568.445 C 230.057 573.831 230.656 580.163 229.255 585.371 C 228.01 589.995 222.161 589.325 218.693 587.919 C 212.224 585.296 205.439 579.256 207.351 571.561 Z" opacity="1" fill="rgb(111,117,106)" fill-rule="evenodd"/>
<path d=" M 210.433 535.592 C 210.708 532.921 212.158 530.398 213.361 528.049 C 215.892 523.105 218.234 516.457 223.818 514.264 C 229.128 512.179 240.974 512.146 240.254 520.473 C 239.61 527.913 236.232 535.274 234.316 542.452 C 233.473 545.606 232.857 549.936 230.241 552.165 C 228.469 553.674 225.472 553.054 223.404 552.642 C 218.348 551.634 215.201 547.42 212.692 543.235 C 211.33 540.963 210.152 538.316 210.433 535.592 Z" opacity="1" fill="rgb(123,139,116)" fill-rule="evenodd"/>
<path d=" M 219.5 420.623 C 219.315 413.567 227.454 407.625 232.073 403.234 C 234.03 401.374 236.07 398.804 238.97 398.67 C 241.418 398.557 243.174 399.997 244.837 401.602 C 247.987 404.641 250.766 408.353 253.111 412.04 C 254.198 413.749 255.434 415.517 255.559 417.615 C 255.696 419.921 254.133 421.046 252.456 422.26 C 249.072 424.711 245.141 426.44 241.462 428.404 C 237.483 430.527 233.647 433.14 229.436 434.787 C 227.844 435.409 225.795 436.093 224.1 435.438 C 222.627 434.868 221.921 433.149 221.498 431.762 C 220.445 428.307 219.594 424.239 219.5 420.623 Z" opacity="1" fill="rgb(123,140,113)" fill-rule="evenodd"/>
<path d=" M 230.88 444.567 C 231.899 440.868 235.604 438.794 238.767 437.124 C 244.098 434.309 249.35 431.344 254.714 428.59 C 257.776 427.018 261.001 425.26 264.484 424.932 C 269.836 424.429 278.146 428.911 276.527 435.257 C 275.513 439.232 272.213 442.206 269.418 444.989 C 264.65 449.737 259.799 454.404 254.898 459.012 C 252.501 461.266 249.215 465.375 245.925 466.236 C 241.548 467.381 239.841 464.215 237.984 461.01 C 236.134 457.816 234.23 454.643 232.593 451.332 C 231.607 449.336 230.248 446.86 230.88 444.567 Z" opacity="1" fill="rgb(131,136,124)" fill-rule="evenodd"/>
<path d=" M 236.447 578.611 C 236.648 574.946 236.603 571.266 236.807 567.598 C 236.926 565.459 237.536 563.245 239.56 562.149 C 241.399 561.153 243.871 561.683 245.639 562.573 C 249.574 564.555 253.039 568.184 255.966 571.405 C 257.275 572.845 259.455 574.882 259.288 577.015 C 259.118 579.169 257.443 580.34 255.813 581.466 C 252.165 583.984 248.114 585.885 244.017 587.54 C 242.128 588.304 239.543 588.743 237.843 587.284 C 235.747 585.484 236.311 581.092 236.447 578.611 Z" opacity="1" fill="rgb(105,127,128)" fill-rule="evenodd"/>
<path d=" M 239.458 549.091 C 239.979 545.112 241.436 541.076 242.561 537.233 C 243.6 533.683 244.433 530.039 245.691 526.558 C 246.778 523.553 247.298 520.467 250.164 518.593 C 252.526 517.048 256.167 517.793 258.697 518.481 C 264.698 520.114 275.441 522.739 274.598 530.966 C 274.127 535.551 272.98 542.714 269.688 546.162 C 266.438 549.566 260.685 551.163 256.339 552.667 C 252.644 553.946 248.692 555.702 244.692 555.441 C 240.994 555.2 238.982 552.725 239.458 549.091 Z" opacity="1" fill="rgb(125,132,119)" fill-rule="evenodd"/>
<path d=" M 244.354 385.073 C 244.95 382.132 247.558 380.288 250.275 379.495 C 255.08 378.092 260.264 377.706 265.245 377.862 C 271.731 378.065 277.946 380.245 283.728 383.062 C 286.821 384.568 289.896 386.487 291.335 389.761 C 292.024 391.33 291.847 393.148 291.875 394.822 C 291.931 398.189 292.096 401.79 291.406 405.102 C 290.799 408.014 289.371 410.52 287.453 412.767 C 285.73 414.786 283.818 416.889 281.588 418.35 C 271.096 425.224 262.299 412.361 256.755 405.214 C 255.448 403.528 254.087 401.887 252.787 400.193 C 250.298 396.948 247.601 393.851 245.654 390.228 C 244.868 388.764 244.008 386.781 244.354 385.073 Z" opacity="1" fill="rgb(133,139,126)" fill-rule="evenodd"/>
<path d=" M 244.956 480.598 C 245.32 475.727 250.022 472.148 253.418 469.217 C 260.019 463.519 266.264 457.383 272.616 451.412 C 275.249 448.937 278.468 444.897 282.075 443.938 C 285.078 443.139 287.998 444.945 290.441 446.449 C 296.138 449.957 303.768 455.346 303.352 462.921 C 303.083 467.81 298.566 470.452 294.975 473.042 C 289.931 476.68 284.786 480.213 279.502 483.487 C 274.214 486.765 268.856 489.583 262.522 489.82 C 261.205 489.87 259.89 489.741 258.582 489.606 C 253.466 489.078 244.442 487.462 244.956 480.598 Z" opacity="1" fill="rgb(117,137,120)" fill-rule="evenodd"/>
<path d=" M 245.352 596.034 C 246.058 594.04 247.912 592.895 249.636 591.886 C 252.742 590.068 255.994 588.337 259.315 586.949 C 260.798 586.33 262.939 585.252 264.558 585.889 C 266.295 586.573 266.984 588.419 267.313 590.106 C 268.093 594.112 269.409 599.968 267.912 603.901 C 266.863 606.659 264.134 607.214 261.473 607.313 C 256.519 607.498 251.534 606.306 247.98 602.69 C 246.362 601.043 244.48 598.495 245.352 596.034 Z" opacity="1" fill="rgb(116,124,109)" fill-rule="evenodd"/>
<path d=" M 249.458 631.611 C 249.493 630.384 249.84 629.144 250.018 627.934 C 250.64 623.702 250.931 617.235 254.871 614.667 C 256.993 613.283 259.114 613.622 261.495 613.555 C 268.106 613.369 276.323 615.985 276.247 623.943 C 276.219 626.959 275.99 631.166 274.076 633.651 C 271.449 637.062 266.545 637.693 262.562 637.935 C 257.493 638.244 249.249 638.867 249.458 631.611 Z" opacity="1" fill="rgb(127,137,122)" fill-rule="evenodd"/>
<path d=" M 257.378 560.514 C 257.853 559.492 259.148 558.661 260.036 558.03 C 262.683 556.149 267.175 554.411 270.383 555.839 C 275.261 558.009 277.167 565.792 274.918 570.35 C 274.529 571.14 273.967 571.891 273.273 572.441 C 268.269 576.404 264.208 570.978 260.841 567.656 C 259.086 565.923 256.029 563.412 257.378 560.514 Z" opacity="1" fill="rgb(118,129,113)" fill-rule="evenodd"/>
<path d=" M 273.96 585.104 C 274.688 580.861 278.412 580.314 281.84 581.971 C 290.269 586.047 298.675 590.845 306.737 595.609 C 309.243 597.09 314.94 599.959 313.345 603.754 C 311.128 606.293 307.647 606.758 304.57 607.59 C 299.502 608.962 294.478 610.51 289.395 611.829 C 285.574 612.821 281.678 613.271 278.552 610.35 C 276.481 608.415 275.861 605.54 275.402 602.865 C 274.423 597.172 273.414 590.882 273.96 585.104 Z" opacity="1" fill="rgb(91,124,131)" fill-rule="evenodd"/>
<path d=" M 278.454 545.095 C 278.858 540.955 280.358 533.021 284.626 531.203 C 287.011 530.187 289.903 531.028 292.237 531.758 C 296.723 533.162 301.148 534.609 305.553 536.254 C 310.701 538.175 320.891 540.892 320.563 547.991 C 320.514 549.054 320.242 550.191 319.891 551.191 C 317.268 558.671 309.058 558.328 302.391 558.833 C 294.856 559.404 283.98 562.465 279.793 554.268 C 279.205 553.116 278.887 551.827 278.66 550.558 C 278.333 548.73 278.274 546.943 278.454 545.095 Z" opacity="1" fill="rgb(129,134,122)" fill-rule="evenodd"/>
<path d=" M 282.404 491.075 C 282.961 488.357 286.098 486.546 288.248 485.186 C 292.576 482.449 296.773 479.5 301.061 476.7 C 303.745 474.947 306.688 473.15 309.963 474.42 C 312.414 475.371 313.954 477.981 314.792 480.333 C 316.563 485.301 316.53 491.193 317.191 496.409 C 317.509 498.914 318.179 501.85 317.217 504.272 C 314.937 506.936 311.423 505.708 308.535 504.867 C 301.669 502.866 294.961 499.872 288.375 497.103 C 285.612 495.941 282.457 494.493 282.404 491.075 Z" opacity="1" fill="rgb(128,133,119)" fill-rule="evenodd"/>
<path d=" M 282.366 570.045 C 282.978 568.19 284.884 567.226 286.62 566.665 C 290.369 565.455 294.776 565.701 298.675 565.417 C 302.038 565.171 305.405 564.827 308.776 564.724 C 310.554 564.67 312.543 564.51 314.237 565.163 C 316.682 566.107 317.768 568.368 318.4 570.75 C 319.721 575.73 321.361 581.999 319.576 587.043 C 317.738 592.24 313.432 591.742 309.35 589.712 C 302.265 586.189 295.456 582.101 288.529 578.281 C 285.634 576.684 281.014 574.148 282.366 570.045 Z" opacity="1" fill="rgb(124,135,115)" fill-rule="evenodd"/>
<path d=" M 282.449 627.593 C 283.658 617.683 295.011 617.078 302.807 614.999 C 306.836 613.925 311.237 612.138 315.411 613.671 C 319.896 615.318 323.432 620.215 326.686 623.529 C 329.705 626.604 335.44 631.163 334.674 635.988 C 334.34 638.096 332.696 639.358 330.891 640.257 C 327.738 641.829 324.158 642.766 320.669 643.213 C 312.033 644.318 303.299 642.957 294.848 641.081 C 291.602 640.36 287.491 639.81 284.923 637.489 C 282.094 634.933 282.023 631.085 282.449 627.593 Z" opacity="1" fill="rgb(129,138,118)" fill-rule="evenodd"/>
<path d=" M 284.387 427.041 C 286.236 422.089 292.875 416.081 298.214 415.52 C 303.013 415.016 307.995 416.605 312.65 417.557 C 316.661 418.377 321.388 418.469 324.558 421.396 C 327.123 423.763 327.669 427.625 328.625 430.815 C 329.504 433.745 331.944 439.096 330.58 442.098 C 328.901 445.79 323.777 446.111 320.323 446.617 C 315.441 447.334 310.047 448.045 305.2 446.722 C 300.468 445.43 296.149 442.396 292.006 439.867 C 287.75 437.269 282.25 432.763 284.387 427.041 Z" opacity="1" fill="rgb(92,102,88)" fill-rule="evenodd"/>
<path d=" M 298.464 401.115 C 298.687 396.486 298.032 390.878 301.874 387.492 C 305.001 384.736 310.405 384.11 314.38 383.467 C 320.248 382.518 329.681 379.563 333.451 385.968 C 334.106 387.082 334.562 388.279 334.871 389.533 C 335.226 390.973 335.489 392.468 335.462 393.956 C 335.375 398.685 332.365 403.487 329.532 407.094 C 327.9 409.173 326.372 410.869 323.724 411.561 C 320.242 412.472 316.493 411.356 313.036 410.831 C 306.856 409.893 298.069 409.313 298.464 401.115 Z" opacity="1" fill="rgb(109,137,142)" fill-rule="evenodd"/>
<path d=" M 309.845 458.053 C 310.814 454.678 313.874 453.399 317.094 452.981 C 323.707 452.123 331.251 450.677 337.845 452.232 C 341.79 453.163 345.837 455.728 344.589 460.339 C 343.91 462.848 341.688 464.349 339.551 465.547 C 336.813 467.082 333.518 467.655 330.495 468.378 C 326.209 469.403 321.534 471.127 317.144 469.655 C 313.024 468.274 308.534 462.614 309.845 458.053 Z" opacity="1" fill="rgb(109,133,131)" fill-rule="evenodd"/>
<path d=" M 322.434 482.095 C 323.108 476.198 328.882 475.344 333.606 474.167 C 336.144 473.534 339.518 472.871 341.902 474.376 C 343.667 475.491 344.27 477.668 344.911 479.512 C 346.471 484.007 348.606 489.539 348.036 494.385 C 347.844 496.02 347.266 497.722 346.507 499.18 C 345.701 500.729 344.596 502.124 343.557 503.519 C 340.2 508.029 334.523 516.122 328.294 510.449 C 326.091 508.443 325.411 505.298 324.926 502.498 C 324.21 498.369 323.663 494.203 323.127 490.046 C 322.798 487.493 322.14 484.671 322.434 482.095 Z" opacity="1" fill="rgb(108,117,101)" fill-rule="evenodd"/>
<path d=" M 323.333 607.025 C 324.127 604.825 326.62 604.217 328.654 603.749 C 333.63 602.604 338.776 602.091 343.798 601.159 C 348.243 600.335 352.442 598.934 357.016 599.835 C 359.291 600.284 361.338 602.435 363.05 603.889 C 365.563 606.024 368.486 608.547 369.617 611.743 C 370.599 614.518 369.847 617.194 369.248 619.955 C 368.426 623.741 367.652 627.691 366.223 631.303 C 363.644 637.825 356.154 639.34 349.999 636.85 C 346.957 635.618 344.48 633.206 342.221 630.898 C 338.444 627.039 335.024 622.845 331.291 618.945 C 328.994 616.546 326.36 614.136 324.369 611.482 C 323.429 610.231 322.767 608.597 323.333 607.025 Z" opacity="1" fill="rgb(104,131,130)" fill-rule="evenodd"/>
<path d=" M 324.474 561.105 C 324.602 559.209 325.009 557.294 325.559 555.477 C 326.294 553.047 327.641 550.299 329.754 548.795 C 332.277 547 335.212 547.177 338.127 547.551 C 342.506 548.113 346.886 549.033 351.203 549.948 C 356.85 551.146 365.098 552.036 367.008 558.551 C 367.34 559.683 367.312 560.899 367.256 562.066 C 367.128 564.715 366.703 567.366 366.384 569.996 C 365.901 573.964 365.817 578.233 362.638 581.142 C 356.269 586.968 346.017 583.142 338.508 582.214 C 334.97 581.776 330.559 581.453 327.966 578.675 C 326.761 577.384 326.362 575.521 325.938 573.859 C 324.899 569.785 324.189 565.317 324.474 561.105 Z" opacity="1" fill="rgb(107,133,134)" fill-rule="evenodd"/>
<path d=" M 324.366 592.531 C 327.496 586.249 336.174 587.8 341.814 589.057 C 343.793 589.497 346.383 589.487 347.837 591.088 C 348.005 592.079 346.811 593.384 346.055 593.914 C 344.816 594.474 343.361 594.581 342.047 594.911 C 337.81 595.974 333.356 596.962 328.975 597.088 C 325.967 597.175 323.335 596.039 324.366 592.531 Z" opacity="1" fill="rgb(123,132,117)" fill-rule="evenodd"/>
<path d=" M 332.945 418.598 C 333.241 415.087 334.696 411.747 336.545 408.792 C 337.381 407.456 338.386 405.89 339.955 405.359 C 345.237 403.571 350.665 409.221 353.216 413.233 C 355.437 416.726 355.289 420.676 355.41 424.637 C 355.549 429.231 356.089 433.932 355.575 438.523 C 354.934 444.245 350.39 450.821 344.09 447.331 C 343.114 446.79 342.223 446.041 341.492 445.2 C 337.608 440.733 336.814 434.925 335.153 429.439 C 334.109 425.991 332.636 422.267 332.945 418.598 Z" opacity="1" fill="rgb(110,134,137)" fill-rule="evenodd"/>
<path d=" M 341.846 385.043 C 343.014 381.382 346.618 379.187 350.167 378.359 C 356.768 376.819 364.529 378.856 370.968 380.431 C 374.041 381.183 378.017 381.983 380.203 384.483 C 383.37 388.104 381.039 394.031 380.014 398.061 C 379.626 399.584 379.358 401.147 378.864 402.641 C 376.83 408.797 371.256 409.199 365.545 408.741 C 357.476 408.093 349.867 402.623 345.064 396.296 C 342.725 393.214 340.58 389.009 341.846 385.043 Z" opacity="1" fill="rgb(97,105,91)" fill-rule="evenodd"/>
<path d=" M 343.936 515.595 C 344.264 513.101 346.313 510.717 347.914 508.897 C 349.702 506.865 351.348 504.445 353.735 503.065 C 358.046 500.575 363.719 503.101 367.911 504.705 C 370.646 505.752 374.213 506.77 375.985 509.277 C 378.143 512.331 377.277 516.975 376.848 520.436 C 375.776 529.1 365.042 526.587 359.23 525.111 C 357.972 524.792 356.718 524.449 355.469 524.097 C 353.906 523.657 352.368 523.212 350.844 522.646 C 347.686 521.473 343.386 519.778 343.936 515.595 Z" opacity="1" fill="rgb(133,139,124)" fill-rule="evenodd"/>
<path d=" M 350.44 466.564 C 352.086 461.752 356.683 460.472 361.132 462.566 C 365.336 464.544 368.716 468.128 372.224 471.089 C 376.4 474.614 380.704 478.025 384.747 481.704 C 387.74 484.426 389.883 487.106 388.559 491.253 C 388.098 492.696 387.358 494.035 386.478 495.262 C 385.64 496.429 384.609 497.501 383.516 498.43 C 378.347 502.822 371.669 499.759 366.228 497.626 C 363.118 496.407 359.428 494.989 357 492.613 C 353.36 489.051 352.523 482.777 351.367 478.037 C 350.492 474.445 349.187 470.224 350.44 466.564 Z" opacity="1" fill="rgb(95,111,102)" fill-rule="evenodd"/>
<path d=" M 355.312 451.025 C 357.152 445.512 365.839 446.773 363.531 452.947 C 361.718 457.796 353.483 456.502 355.312 451.025 Z" opacity="1" fill="rgb(133,145,127)" fill-rule="evenodd"/>
<path d=" M 362.399 419.069 C 363.867 413.654 373.3 414.189 377.208 416.264 C 382.507 419.077 383.282 425.32 381.876 430.674 C 380.537 435.773 375.309 440.292 370.13 441.258 C 368.2 441.617 365.453 441.777 363.977 440.228 C 362.609 438.791 362.378 436.488 362.318 434.604 C 362.21 431.24 362.215 427.869 362.191 424.503 C 362.179 422.758 361.937 420.771 362.399 419.069 Z" opacity="1" fill="rgb(129,138,120)" fill-rule="evenodd"/>
<path d=" M 363.905 590.541 C 367.94 582.863 377.258 587.524 383.141 590.094 C 385.597 591.167 388.519 592.359 390.171 594.566 C 390.341 595.666 390.198 596.907 389.917 597.983 C 387.373 601.916 379.706 605.456 375.121 604.186 C 372.407 603.435 370.314 601.401 368.351 599.497 C 365.921 597.141 362.802 594.273 363.905 590.541 Z" opacity="1" fill="rgb(127,134,118)" fill-rule="evenodd"/>
<path d=" M 369.479 457.121 C 369.473 450.11 376.972 442.16 384.316 443.436 C 386.428 443.802 388.217 445.223 389.761 446.63 C 392.584 449.204 394.983 452.277 397.332 455.277 C 399.003 457.409 400.458 459.74 400.435 462.534 C 400.401 466.596 398.606 470.916 396.299 474.222 C 394.909 476.215 393.177 477.692 390.583 477.029 C 386.26 475.924 382.418 470.986 379.006 468.309 C 375.654 465.68 369.483 461.895 369.479 457.121 Z" opacity="1" fill="rgb(105,115,95)" fill-rule="evenodd"/>
<path d=" M 372.957 572.107 C 373.197 567.692 373.434 562.251 375.815 558.428 C 379.889 551.885 391.777 549.77 397.854 554.655 C 399.651 556.099 400.516 558.452 401.467 560.479 C 402.997 563.743 404.422 567.023 405.777 570.36 C 406.618 572.433 407.609 574.692 407.538 576.974 C 407.4 581.469 401.609 584.973 397.798 586.079 C 391.861 587.802 385.316 584.52 380.034 582.114 C 377.691 581.047 375.016 579.77 373.579 577.527 C 372.586 575.977 372.861 573.864 372.957 572.107 Z" opacity="1" fill="rgb(123,140,116)" fill-rule="evenodd"/>
<path d=" M 373.365 632.084 C 374.682 623.586 377.419 611.34 387.049 608.822 C 395.036 606.733 400.179 617.956 403.743 623.363 C 405.179 625.541 407.444 628.181 407.083 630.959 C 406.618 634.538 402.304 635.627 399.448 636.691 C 393.54 638.89 386.965 641.605 380.563 640.645 C 376.056 639.969 372.626 636.857 373.365 632.084 Z" opacity="1" fill="rgb(104,111,100)" fill-rule="evenodd"/>
<path d=" M 383.942 515.09 C 385.162 506.982 390.845 497.487 398.529 493.913 C 403.914 491.408 410.893 490.796 416.701 489.696 C 421.599 488.769 429.399 485.882 433.428 489.99 C 437.788 494.436 435.874 502.953 435.084 508.442 C 434.571 512.009 433.921 515.727 432.727 519.133 C 432.135 520.822 431.364 522.732 429.873 523.831 C 426.189 526.547 421.206 526.965 416.799 527.274 C 410.152 527.741 403.541 528.279 396.869 528.415 C 393.113 528.491 388.585 528.766 385.617 526.014 C 382.783 523.387 383.426 518.519 383.942 515.09 Z" opacity="1" fill="rgb(96,105,90)" fill-rule="evenodd"/>
<path d=" M 384.922 405.093 C 385.609 399.269 387.306 391.455 391.085 386.84 C 394.525 382.64 400.018 380.26 405.35 379.796 C 407.86 379.577 410.93 379.391 413.268 380.513 C 418.237 382.9 421.132 387.619 424.313 391.875 C 426.848 395.269 429.678 398.491 431.699 402.236 C 432.632 403.963 433.523 406.144 433.228 408.144 C 432.377 413.899 424.921 413.432 420.549 413.911 C 414.933 414.525 409.213 414.669 403.627 415.452 C 399.715 416.001 394.963 416.59 391.071 415.714 C 386.122 414.599 384.381 409.667 384.922 405.093 Z" opacity="1" fill="rgb(131,140,125)" fill-rule="evenodd"/>
<path d=" M 388.942 430.112 C 389.057 426.707 391.086 423.66 394.457 422.728 C 400.549 421.044 407.693 421.486 413.972 421.04 C 419.392 420.655 425.494 419.531 430.899 420.385 C 434.59 420.968 437.028 423.948 437.055 427.662 C 437.105 434.241 433.995 441.389 431.671 447.435 C 430.618 450.175 429.353 453.246 426.694 454.784 C 423.957 456.367 420.722 456.636 417.648 456.994 C 414.505 457.361 410.914 457.777 408.037 456.121 C 403.194 453.334 399.581 448.285 396.093 444.035 C 392.907 440.152 388.761 435.477 388.942 430.112 Z" opacity="1" fill="rgb(94,103,89)" fill-rule="evenodd"/>
<path d=" M 397.925 597.594 C 398.583 593.729 402.614 591.007 405.742 589.166 C 408.901 587.309 412.288 585.545 416.038 585.467 C 425.232 585.277 435.74 592.658 434.145 602.778 C 433.671 605.789 432.357 608.607 431.262 611.423 C 429.838 615.084 428.417 618.753 426.827 622.347 C 425.654 624.996 424.306 627.853 421.165 628.48 C 417.864 629.139 414.85 626.967 412.841 624.551 C 410.832 622.135 409.337 619.387 407.503 616.851 C 404.996 613.386 402.312 609.954 400.257 606.193 C 398.902 603.713 397.43 600.501 397.925 597.594 Z" opacity="1" fill="rgb(126,143,117)" fill-rule="evenodd"/>
<path d=" M 401.019 482.64 C 400.727 480.411 402.096 477.663 402.971 475.694 C 404.496 472.264 406.587 467.744 409.86 465.637 C 412.536 463.913 415.747 463.494 418.843 463.138 C 421.243 462.863 423.626 462.247 426.037 462.663 C 430.207 463.383 432.652 468 433.1 471.84 C 434.196 481.236 422.199 481.874 415.67 483.37 C 413.919 483.771 412.166 484.094 410.396 484.393 C 407.89 484.817 401.513 486.416 401.019 482.64 Z" opacity="1" fill="rgb(123,140,118)" fill-rule="evenodd"/>
<path d=" M 407.292 553.009 C 408.181 550.508 410.888 549.257 413.174 548.392 C 417.532 546.743 422.582 544.962 427.243 544.549 C 429.761 544.325 432.297 544.619 434.146 546.539 C 436.134 548.603 436.245 552.314 436.33 555.003 C 436.547 561.895 436.698 569.112 434.229 575.67 C 431.833 582.033 424.895 581.835 419.665 578.799 C 413.618 575.288 411.474 566.666 408.919 560.6 C 407.997 558.411 406.424 555.453 407.292 553.009 Z" opacity="1" fill="rgb(127,136,128)" fill-rule="evenodd"/>
<path d=" M 494.416 420.594 C 496.717 408.719 502.659 398.271 513.872 392.721 C 528.592 385.436 550.339 388.14 560.21 402.25 C 563.231 406.569 564.689 411.155 565.356 416.302 C 560.471 416.36 555.337 415.907 550.487 416.491 C 549.168 413.396 548.174 410.336 545.643 407.946 C 537.141 399.917 522.79 401.782 515.508 410.388 C 509.808 417.124 508.984 427.477 511.464 435.701 C 513.608 442.812 519.471 448.474 526.712 450.175 C 536.457 452.464 549.479 447.624 551.046 436.485 C 545.152 436.14 538.798 435.928 532.912 436.438 C 531.885 432.794 532.855 428.027 532.719 424.245 C 543.491 423.986 554.537 423.611 565.303 424.236 C 564.935 427.384 565.367 430.824 565.368 434.002 C 565.369 443.702 565.932 453.561 565.324 463.242 C 562.55 463.292 559.77 463.283 556.995 463.236 C 555.845 463.217 554.337 463.518 553.255 463.151 C 553.324 460.182 553.466 456.897 552.958 453.969 C 551.287 455.054 550.19 457.441 548.611 458.787 C 544.999 461.865 540.035 463.641 535.414 464.42 C 531.446 465.089 527.188 464.968 523.261 464.113 C 516.724 462.688 510.643 459.993 505.646 455.458 C 496.23 446.913 492.811 432.891 494.416 420.594 Z" opacity="1" fill="rgb(96,102,86)" fill-rule="evenodd"/>
<path d=" M 494.962 599.11 C 495.446 596.007 495.798 593.005 497.095 590.097 C 500.936 581.482 508.918 576.033 518.389 575.779 C 526.508 575.562 534.801 579.369 539.13 586.375 C 540.53 588.64 542.123 591.75 541.581 594.505 C 540.296 595.107 538.449 594.799 537.054 594.898 C 534.891 589.873 532.968 585.739 527.951 582.932 C 521.118 579.109 511.69 580.391 506.213 586.019 C 503.007 589.313 501.014 593.949 500.472 598.488 C 499.795 604.159 501.095 610.539 504.413 615.23 C 509.603 622.567 520.188 625.051 528.172 620.992 C 533.608 618.228 534.876 613.316 537.433 608.328 C 538.78 608.127 540.439 607.967 541.681 608.609 C 541.87 622.929 525.148 630.648 512.766 627.14 C 500.49 623.662 493.781 611.445 494.962 599.11 Z" opacity="1" fill="rgb(100,105,91)" fill-rule="evenodd"/>
<path d=" M 495.183 482.676 C 500.007 481.82 505.887 482.107 510.769 482.494 C 511.233 484.377 510.9 486.571 510.904 488.505 C 510.913 492.506 510.955 496.506 510.954 500.507 C 510.954 512.873 511.001 525.233 511.077 537.595 C 511.105 542.062 511.083 546.53 511.094 550.998 C 511.097 551.993 511.652 554.641 511.038 555.436 C 505.849 555.417 500.548 555.129 495.371 555.472 C 494.672 554.274 495.285 551.429 495.283 550.001 C 495.276 545.168 495.279 540.335 495.278 535.501 C 495.273 524.001 495.286 512.501 495.286 501 C 495.286 494.915 495.56 488.75 495.183 482.676 Z" opacity="1" fill="rgb(97,103,87)" fill-rule="evenodd"/>
<path d=" M 526.37 482.848 C 527.606 482.146 529.548 482.434 530.944 482.421 C 534.683 482.385 538.513 482.22 542.241 482.528 C 543.921 484.335 545.118 486.807 546.393 488.911 C 548.23 491.942 550.124 494.939 551.954 497.975 C 556.485 505.495 561.309 512.857 565.958 520.306 C 568.247 523.974 570.156 527.971 572.541 531.556 C 572.761 527.428 572.378 523.149 572.339 518.997 C 572.226 507.004 571.828 494.88 572.365 482.898 C 572.953 482.061 575.103 482.396 576.097 482.394 C 579.891 482.39 583.768 482.171 587.548 482.527 C 588.208 484.092 587.717 486.799 587.724 488.5 C 587.745 493.333 587.73 498.167 587.719 503 C 587.694 514.5 587.756 526 587.756 537.5 C 587.756 543.41 587.137 549.716 587.841 555.582 C 587.678 555.945 584.512 555.656 584.008 555.653 C 581.174 555.635 578.339 555.624 575.506 555.575 C 574.346 555.555 572.688 555.841 571.625 555.375 C 564.338 544.492 557.564 533.08 550.677 521.932 C 547.659 517.047 544.956 511.698 541.416 507.181 C 542.168 523.232 541.157 539.342 541.764 555.392 C 540.537 555.833 538.407 555.47 537.07 555.452 C 533.574 555.405 529.954 555.174 526.472 555.492 C 525.923 552.815 526.309 549.728 526.311 546.998 C 526.313 541.665 526.324 536.331 526.317 530.998 C 526.297 514.969 525.897 498.868 526.37 482.848 Z" opacity="1" fill="rgb(96,102,86)" fill-rule="evenodd"/>
<path d=" M 553.339 578.052 C 553.496 577.436 553.382 577.73 553.681 577.169 C 554.963 575.974 556.912 576.331 558.378 576.991 C 559.027 577.867 558.773 579.465 558.769 580.499 C 558.758 583.164 558.763 585.83 558.761 588.496 C 558.754 596.163 558.736 603.83 558.74 611.497 C 558.741 613.995 558.744 616.491 558.8 618.988 C 558.821 619.904 558.625 621.032 558.926 621.895 C 564.943 621.726 570.983 621.818 577.005 621.813 C 578.922 621.811 582.568 621.117 584.177 622.266 C 584.907 623.57 585.246 625.39 584.26 626.684 C 580.993 627.477 576.863 626.798 573.497 626.8 C 567.113 626.803 559.814 627.777 553.558 626.392 C 552.576 620 553.331 612.966 553.329 606.498 C 553.327 597.064 552.796 587.468 553.339 578.052 Z" opacity="1" fill="rgb(108,114,98)" fill-rule="evenodd"/>
<path d=" M 579.83 390.375 C 587.95 389.904 596.18 390.271 604.313 390.266 C 612.278 390.26 620.773 389.884 627.858 394.175 C 638.216 400.448 641.639 416.508 634.822 426.685 C 631.589 431.511 627.14 433.749 621.895 435.719 C 628.488 444.712 634.203 454.357 640.82 463.333 C 639.775 462.992 638.122 463.327 637.001 463.316 C 633.833 463.286 630.664 463.274 627.496 463.26 C 625.974 463.254 624.135 463.583 622.679 463.139 C 618.543 456.973 614.655 450.617 610.59 444.399 C 609.199 442.272 607.695 438.562 605.609 437.1 C 602.235 436.984 598.757 436.617 595.399 437.09 C 595.489 443.215 595.295 449.367 595.31 455.499 C 595.316 457.993 595.017 460.713 595.339 463.179 C 590.162 463.383 584.832 462.656 579.68 463.246 C 578.977 457.671 579.616 451.621 579.61 445.999 C 579.596 434.495 579.533 422.992 579.552 411.488 C 579.561 406.656 579.575 401.824 579.577 396.993 C 579.578 395.034 579.041 392.174 579.83 390.375 Z M 595.308 404.277 C 595.304 410.848 595.132 417.46 595.438 424.026 C 597.751 424.279 600.178 424.123 602.509 424.114 C 607.91 424.092 616.023 425.355 620.213 421.081 C 624.205 417.008 622.95 408.659 618.201 405.735 C 613.785 403.017 606.771 403.92 601.776 403.905 C 599.713 403.898 597.268 403.58 595.308 404.277 Z" opacity="1" fill="rgb(96,102,86)" fill-rule="evenodd"/>
<path d=" M 594.435 578.61 C 594.933 576.262 597.518 575.875 599.305 577.183 C 600.009 578.27 599.778 579.757 599.769 580.997 C 599.751 583.33 599.763 585.663 599.765 587.996 C 599.773 597.162 599.822 606.33 599.796 615.496 C 599.789 618.164 599.816 620.83 599.842 623.497 C 599.852 624.506 599.991 625.877 599.201 626.633 C 597.749 626.881 596.417 626.675 594.993 626.401 C 594.404 625.585 594.566 624.133 594.549 623.158 C 594.504 620.507 594.766 617.776 594.503 615.137 C 594.057 610.662 594.417 605.991 594.413 601.495 C 594.405 593.873 594.264 586.23 594.435 578.61 Z" opacity="1" fill="rgb(110,116,101)" fill-rule="evenodd"/>
<path d=" M 598.271 531.357 C 603.268 531.299 608.277 531.332 613.273 531.135 C 612.928 540.975 623.32 545.245 631.628 543.996 C 636.906 543.202 642.437 540.805 641.877 534.442 C 641.282 527.683 631.856 526.576 626.767 525.317 C 616.722 522.831 603.579 520.407 601.132 508.401 C 600.675 506.16 600.474 503.84 600.591 501.554 C 600.722 498.992 601.195 496.413 602.301 494.08 C 609.131 479.668 630.566 477.711 643.491 484.241 C 650.599 487.832 657.39 496.83 656.139 505.225 C 651.353 505.563 646.435 505.205 641.639 505.189 C 641.185 502.825 640.635 500.525 639.283 498.49 C 636.954 494.986 632.373 493.829 628.403 493.728 C 622.484 493.576 615.123 495.974 616.256 503.251 C 617.272 509.78 626.76 510.493 631.856 511.694 C 641.375 513.937 652.833 516.508 656.419 527.012 C 657.096 528.995 657.416 531.055 657.522 533.142 C 657.642 535.494 657.416 537.961 656.733 540.22 C 651.618 557.137 629.069 560.186 614.583 554.784 C 611.061 553.47 607.807 551.467 605.122 548.821 C 600.402 544.169 598.579 537.784 598.271 531.357 Z" opacity="1" fill="rgb(97,103,86)" fill-rule="evenodd"/>
<path d=" M 614.827 577.39 C 616.582 575.737 620.728 576.592 623 576.582 C 628.167 576.561 633.334 576.546 638.501 576.575 C 641.309 576.591 644.286 576.339 647.055 576.855 C 647.839 578.127 647.627 579.962 647.191 581.318 C 644.538 582.119 641.096 581.525 638.342 581.527 C 632.332 581.532 626.319 581.485 620.313 581.602 C 619.75 582.925 620.126 584.577 620.137 585.997 C 620.16 588.995 620.193 591.995 620.196 594.993 C 620.196 596.228 619.901 597.836 620.353 598.992 C 628.041 598.688 635.962 598.726 643.642 599.224 C 644.201 600.255 644.824 602.943 643.752 603.819 C 636.085 605.311 627.847 603.307 620.105 604.13 C 620.26 609.582 620.188 615.139 619.971 620.591 C 619.9 622.361 620.575 624.828 619.575 626.399 C 618.491 627.133 616.157 627.082 615.054 626.413 C 614.401 625.14 614.609 623.401 614.607 622.002 C 614.604 619.334 614.603 616.666 614.597 613.998 C 614.578 605.497 614.554 596.996 614.599 588.496 C 614.617 585.174 613.747 580.523 614.827 577.39 Z" opacity="1" fill="rgb(106,111,97)" fill-rule="evenodd"/>
<path d=" M 644.925 462.047 C 650.139 447.667 656.154 433.564 661.473 419.218 C 663.635 413.385 665.908 407.597 668.123 401.787 C 669.55 398.043 670.78 394.085 672.559 390.494 C 673.429 389.784 675.68 390.212 676.811 390.217 C 680.805 390.235 684.864 390.448 688.852 390.204 C 690.096 391.271 690.849 394.461 691.423 396.002 C 693.203 400.782 695.13 405.494 697.008 410.237 C 701.895 422.576 706.692 434.955 711.467 447.337 C 712.824 450.856 714.143 454.413 715.615 457.885 C 716.353 459.625 717.461 461.448 717.936 463.269 C 713.956 463.275 709.976 463.295 705.996 463.277 C 704.487 463.271 702.125 463.745 700.736 463.265 C 699.01 458.081 697.196 452.613 694.861 447.68 C 685.419 448.192 675.864 447.608 666.408 447.795 C 665.141 452.864 663.088 458.611 660.797 463.304 C 655.621 463.947 649.851 463.363 644.635 463.221 C 644.809 462.448 644.713 462.839 644.925 462.047 Z M 671.355 433.542 C 671.116 434.346 671.066 434.006 671.283 434.572 C 677.584 434.516 683.917 434.694 690.199 434.622 C 689.175 433.327 688.739 430.76 688.159 429.199 C 686.553 424.877 685.097 420.504 683.53 416.17 C 682.754 414.022 681.86 411.874 681.282 409.665 C 681.125 409.063 680.939 407.221 680.235 408.217 C 677.879 416.726 674.473 425.278 671.355 433.542 Z" opacity="1" fill="rgb(95,101,86)" fill-rule="evenodd"/>
<path d=" M 651.415 578.057 C 652.68 575.606 657.631 576.621 660.007 576.625 C 667.507 576.636 675.007 576.528 682.507 576.653 C 684.34 576.683 686.173 576.703 688.006 576.745 C 688.707 576.762 689.796 576.611 690.341 577.072 C 690.669 578.346 691.145 580.368 690.212 581.475 C 688.9 581.914 687.368 581.706 686.001 581.703 C 683.561 581.697 681.118 581.748 678.68 581.717 C 677.319 581.699 675.659 581.452 674.366 581.916 C 674.404 592.938 674.374 603.973 674.392 615 C 674.397 617.667 674.409 620.334 674.414 623 C 674.416 624.092 674.6 625.749 673.801 626.615 C 672.399 626.865 670.475 627.156 669.248 626.301 C 668.538 625.033 668.741 623.41 668.742 622.002 C 668.743 619.335 668.739 616.669 668.736 614.002 C 668.727 606.858 668.709 599.714 668.697 592.569 C 668.692 589.077 668.287 585.316 668.702 581.858 C 664.827 581.593 660.88 581.764 656.996 581.786 C 655.369 581.795 653.226 582.286 651.795 581.365 C 651 580.417 651.088 579.192 651.415 578.057 Z" opacity="1" fill="rgb(107,112,97)" fill-rule="evenodd"/>
<path d=" M 669.294 482.409 C 672.698 482.337 676.1 482.348 679.505 482.359 C 681.253 482.364 683.219 482.128 684.928 482.492 C 684.629 506.765 685.696 531.101 685.063 555.356 C 683.69 555.964 681.493 555.587 680.007 555.58 C 676.451 555.564 672.878 555.482 669.323 555.58 C 669.41 539.063 669.269 522.524 669.24 506.002 C 669.231 500.669 669.22 495.336 669.223 490.002 C 669.224 487.567 668.811 484.795 669.294 482.409 Z" opacity="1" fill="rgb(96,102,86)" fill-rule="evenodd"/>
<path d=" M 695.939 597.603 C 697.725 581.012 715.841 570.759 731.023 577.986 C 741.022 582.746 746.216 593.622 745.094 604.464 C 744.463 610.559 741.996 616.637 737.625 621.018 C 729.362 629.299 714.893 630.047 705.629 623.002 C 697.82 617.064 694.921 607.062 695.939 597.603 Z M 701.451 598.611 C 701.016 603.18 701.559 608.16 703.698 612.283 C 708.628 621.782 721.539 626.39 730.769 619.83 C 736.198 615.972 739.053 610.045 739.629 603.476 C 740.368 595.049 736.442 586.272 728.635 582.482 C 721.428 578.984 711.98 580.722 706.51 586.522 C 703.492 589.722 701.863 594.288 701.451 598.611 Z" opacity="1" fill="rgb(103,108,92)" fill-rule="evenodd"/>
<path d=" M 697.44 512.591 C 698.447 507.857 699.523 503.29 701.919 499.015 C 708.947 486.474 723.565 479.197 737.874 480.977 C 749.212 482.388 759.931 487.827 765.327 498.327 C 766.465 500.541 767.237 502.899 767.795 505.319 C 768.013 506.266 768.443 507.606 768.203 508.574 C 763.689 509.732 758.62 508.411 754.025 509.01 C 753.358 508.642 753.157 507.592 752.896 506.892 C 752.406 505.58 751.833 504.327 751.085 503.142 C 748.788 499.5 745.151 497.045 741.013 495.935 C 736.34 494.682 730.653 494.571 726.143 496.481 C 721.717 498.356 718.259 501.82 716.01 506.035 C 709.935 517.426 712.77 534.786 724.949 540.907 C 735.42 546.17 752.1 541.817 753.775 528.66 C 747.591 528.68 741.39 528.657 735.205 528.639 C 735.135 524.69 735.149 520.74 735.106 516.792 C 735.49 516.112 736.479 516.343 737.224 516.343 C 739.151 516.343 741.079 516.301 743.005 516.29 C 748.838 516.257 754.672 516.215 760.505 516.245 C 762.695 516.256 766.083 515.668 768.129 516.404 C 768.653 521.175 768.233 526.203 768.23 531.001 C 768.224 539.22 768.317 547.444 768.272 555.659 C 765.535 555.801 762.747 555.637 760.007 555.595 C 758.92 555.578 757.41 555.902 756.394 555.568 C 756.408 552.816 756.845 548.906 756.065 546.287 C 755.37 546.422 755.013 547.117 754.574 547.609 C 753.437 548.886 752.518 550.285 751.173 551.374 C 747.413 554.418 742.669 556.11 737.899 556.72 C 734.039 557.213 730.346 557.052 726.512 556.412 C 705.913 552.974 694.643 532.242 697.44 512.591 Z" opacity="1" fill="rgb(96,103,86)" fill-rule="evenodd"/>
<path d=" M 725.891 391.047 C 725.948 390.84 726.005 390.632 726.063 390.425 C 729.543 390.347 733.024 390.399 736.505 390.394 C 738.011 390.392 740.256 389.992 741.639 390.631 C 741.881 407.405 741.779 424.215 741.771 440.998 C 741.768 446.165 741.754 451.332 741.749 456.499 C 741.747 458.517 741.267 461.323 741.79 463.256 C 736.595 463.159 731.332 463.097 726.141 463.319 C 725.391 461.762 725.888 458.942 725.886 457.225 C 725.879 452.315 725.902 447.405 725.901 442.495 C 725.899 425.348 726.074 408.192 725.891 391.047 Z" opacity="1" fill="rgb(97,103,87)" fill-rule="evenodd"/>
<path d=" M 756.932 578.604 C 757.037 577.983 756.985 578.338 757.072 577.539 C 758.392 576.315 760.597 576.376 762.276 576.733 C 764.013 578.322 765.189 580.412 766.476 582.36 C 768.372 585.228 770.339 588.046 772.297 590.871 C 778.663 600.061 785.312 609.127 790.984 618.772 C 791.307 618.732 790.921 616.823 790.889 616.509 C 790.641 614.038 790.792 611.482 790.788 609.001 C 790.776 601.499 790.947 593.997 790.927 586.496 C 790.919 583.912 789.975 579.501 791.198 577.219 C 792.533 575.883 795.709 575.98 796.161 578.144 C 796.888 581.623 796.23 585.938 796.251 589.499 C 796.3 597.665 796.262 605.833 796.246 613.999 C 796.24 616.833 796.235 619.667 796.25 622.501 C 796.257 623.812 796.486 625.457 795.642 626.559 C 795.045 626.87 794.269 626.879 793.608 626.931 C 792.633 627.008 791.475 627.124 790.524 626.824 C 788.741 626.26 787.305 622.829 786.352 621.359 C 780.825 612.84 775.11 604.464 769.45 596.035 C 767.682 593.402 765.881 590.794 764.167 588.126 C 763.849 587.633 762.64 585.53 762.186 585.857 C 763.187 595.941 762.346 606.371 762.37 616.499 C 762.376 618.996 762.455 621.5 762.402 623.997 C 762.385 624.804 762.457 626.207 761.721 626.72 C 760.483 626.844 758.851 627.165 757.68 626.647 C 756.89 625.125 757.155 623.158 757.176 621.501 C 757.213 618.502 757.177 615.502 757.161 612.503 C 757.097 601.206 756.938 589.895 756.932 578.604 Z" opacity="1" fill="rgb(105,111,95)" fill-rule="evenodd"/>
<path d=" M 757.362 390.472 C 762.755 390.387 768.374 390.007 773.748 390.518 C 776.727 393.462 778.737 398.372 780.905 401.95 C 786.047 410.44 791.251 418.898 796.437 427.362 C 798.232 430.291 799.923 433.283 801.699 436.222 C 802.186 437.028 802.634 438.629 803.394 439.162 C 803.609 437.481 803.323 435.722 803.33 434.016 C 803.347 430.011 803.317 426.007 803.299 422 C 803.252 411.485 803.516 400.951 803.289 390.439 C 807.194 390.273 811.098 390.406 815.005 390.385 C 815.624 390.382 818.519 390.021 818.788 390.548 C 819.522 407.804 818.841 425.229 818.829 442.501 C 818.825 447.5 818.81 452.499 818.789 457.498 C 818.783 458.933 819.4 461.922 818.835 463.174 C 813.549 463.32 807.636 463.879 802.4 463.201 C 795.152 452.875 789.098 441.542 782.445 430.819 C 780.193 427.19 778.041 423.497 775.824 419.846 C 775.039 418.554 774.346 417.211 773.543 415.93 C 773.377 415.666 772.765 414.766 772.725 414.762 C 772.461 414.739 772.631 415.283 772.584 415.544 C 772.936 420.307 772.619 425.216 772.61 429.998 C 772.592 441.008 772.345 452.068 772.53 463.066 C 771.801 463.569 769.879 463.214 768.998 463.214 C 766.274 463.215 763.548 463.244 760.824 463.212 C 759.809 463.199 758.357 463.488 757.409 463.152 C 757.435 446.604 757.219 430.052 757.239 413.502 C 757.245 408.335 757.263 403.168 757.281 398.001 C 757.289 395.58 756.931 392.848 757.362 390.472 Z" opacity="1" fill="rgb(95,102,87)" fill-rule="evenodd"/>
<path d=" M 782.264 482.76 C 784.201 482.236 786.25 482.424 788.238 482.421 C 791.476 482.416 794.739 482.293 797.971 482.497 C 798.18 489.323 798.189 496.163 798.202 502.999 C 798.206 504.831 798.217 506.663 798.215 508.495 C 798.214 509.194 798.037 510.335 798.411 510.905 C 808.349 510.475 818.396 511.468 828.314 510.84 C 827.955 505.783 828.343 500.574 828.348 495.501 C 828.352 491.219 827.95 486.7 828.345 482.447 C 833.546 482.385 839.115 481.858 844.276 482.534 C 843.603 497.458 844.213 512.559 844.238 527.5 C 844.249 533.667 844.252 539.834 844.241 546 C 844.236 549.065 843.932 552.36 844.271 555.398 C 839.068 556.113 833.598 554.694 828.412 555.619 C 828.871 545.431 828.034 535.17 828.352 524.971 C 827.841 524.595 826.799 524.744 826.168 524.734 C 824.277 524.706 822.387 524.732 820.496 524.724 C 813.15 524.694 805.577 524.23 798.26 524.881 C 797.927 529.207 798.228 533.662 798.232 538.001 C 798.238 543.779 798.028 549.609 798.257 555.38 C 797.017 555.83 794.854 555.467 793.502 555.455 C 789.992 555.423 786.461 555.338 782.954 555.449 C 782.075 554.916 782.417 552.144 782.406 551.137 C 782.356 546.748 782.403 542.357 782.409 537.968 C 782.431 519.587 782.781 501.133 782.264 482.76 Z" opacity="1" fill="rgb(97,103,87)" fill-rule="evenodd"/>
<path d=" M 852.985 483.601 C 853.103 482.928 852.965 483.298 853.596 482.586 C 865.121 481.669 876.942 482.383 888.503 482.34 C 893.836 482.321 899.171 482.332 904.504 482.38 C 906.915 482.401 909.55 482.091 911.93 482.473 C 911.682 486.805 911.44 491.755 911.977 496.059 C 911.677 496.344 910.711 496.178 910.329 496.17 C 909.055 496.144 907.78 496.134 906.506 496.118 C 901.204 496.052 895.743 495.747 890.458 496.194 C 890.35 511.283 890.417 526.376 890.452 541.467 C 890.461 545.023 890.312 548.614 890.548 552.164 C 890.575 552.563 890.918 555.237 890.509 555.381 C 885.305 555.539 880.035 554.982 874.841 555.471 C 874.192 554.091 874.662 551.743 874.667 550.225 C 874.681 546.319 874.697 542.412 874.689 538.506 C 874.662 524.406 874.925 510.263 874.582 496.17 C 869.72 495.818 864.679 495.9 859.801 495.93 C 857.944 495.942 854.668 496.51 853.045 495.696 C 852.678 491.794 852.642 487.506 852.985 483.601 Z" opacity="1" fill="rgb(96,102,87)" fill-rule="evenodd"/>

</svg>